<svg width="463" height="513" viewBox="0 0 463 513" fill="none" xmlns="http://www.w3.org/2000/svg">
<path fill-rule="evenodd" clip-rule="evenodd" d="M67 231.505C67.016 231.508 67.0277 231.52 67.0353 231.541L67 231.505Z" fill="#E5DCD8"/>
<path d="M46 149.505C57 135.505 73.5 136.005 74 135.005C74.4999 134.005 76 116.005 87 108.505L77 87.0051L24.5 1.50518C19.628 -0.306219 17 -0.494808 11 1.00521C11 1.00521 64 95.5052 64 97.0051C64.0001 98.505 61 116.505 58 119.005C55 121.505 36 128.005 36 128.005L46 149.505Z" fill="#E5DCD8"/>
<path d="M377 110.005C384.753 117.999 387.05 123.761 388 136.005C400.841 139.8 409.542 143.285 416.5 150.506L426.5 127.505C413.718 122.721 403.924 119.742 402 117.005C400.232 109.254 398 100.505 398.5 97.0051C399 93.5052 451.5 2.00518 451.5 2.00518C447.802 0.681837 446.323 -0.670008 440.5 0.505179C415.526 29.5018 404.953 50.7298 385 87.0051L374.224 107.854C375.122 108.527 376.047 109.243 377 110.005Z" fill="#E5DCD8"/>
<path d="M104.5 78.5052C111.168 85.8217 114.264 90.1147 119 98.0051C105.051 97.5019 97.5 99.0052 87 108.505L77 87.0051C86.0362 80.9109 91.8248 78.6709 104.5 78.5052Z" fill="#F0E9E6"/>
<path d="M374.224 107.854C360.287 97.4193 352.647 97.446 342 99.5051L357 79.0051C369.141 79.6288 375.362 81.1919 385 87.0051L374.224 107.854Z" fill="#F0E9E6"/>
<path d="M231 512.005C217.549 512.005 210.082 506.438 206 501.505C194 487.005 204.5 512.005 170 512.005C168.262 512.005 153 515.005 138.5 494.005C135.883 490.215 134.337 495.485 125.165 497.913C125.165 497.913 100 490.505 93.5 462.005C92.1106 455.913 82.5 460.505 77 459.005C59.1519 454.138 54 452.005 45.5 429.505C42.6573 421.98 48.5 401.876 47 401.005C18.5 384.457 20 370.073 20 368.005C20 349.005 32.1029 343.505 32 338.005C31.8315 329.005 16 326.505 16 306.005C16 270.935 44.5 279.005 41 269.005C39.832 265.668 23 225.005 44 227.005C49.6751 227.546 58.5353 230.041 67.0353 231.541C67.2893 232.238 62.9961 242.803 62.5 250.005C61.6745 261.988 68.5 275.505 93 286.005C101.72 289.742 113.191 297.336 114 310.005C114.398 316.241 113.5 326.005 115.5 326.005C124.5 326.005 153.5 325.005 155 356.505C155.027 357.07 151 388.505 179 398.505C185.791 400.931 188.5 409.505 193.5 413.505C205.629 423.208 235.958 441.541 269 414.005C275 409.005 279 399.171 279.5 399.005C307.349 389.746 305.826 376.605 306 354.505C306 354.505 306.886 326.005 346.5 326.005C348.5 326.005 346.5 294.505 364.5 287.505C376.732 282.748 395 280.005 399 250.005C399.861 243.543 399 238.505 394 230.505C393.407 229.557 418 231.505 432.5 214.005C433.4 212.918 444 224.005 444.5 241.005C445.5 249.505 441.911 256.242 435 268.005C434.214 269.283 462.5 279.005 462 305.005C461.942 308.005 464 324.505 445 339.005C444.205 339.612 456.5 351.505 457 368.005C457.045 369.504 460.5 392.505 430 405.005C427.641 405.972 433 414.005 432 424.505C431.858 425.998 430.5 455.505 399.5 461.005C395.35 461.742 385.452 459.698 384.5 463.505C383 469.505 382.5 499.005 347.5 499.005C338.181 499.005 333.537 496.774 325 492.505C324 492.005 316.633 505.875 303.5 510.505C291.083 514.883 273.981 510.692 270 505.505C253.5 484.005 267.5 512.005 231 512.005Z" fill="#F0E9E6"/>
<path d="M193.5 413.505C205.629 423.208 235.958 441.541 269 414.005C252 410.005 242 391.505 231 391.005C223 391.005 203.605 412.813 193.5 413.505Z" fill="#FAF8F8"/>
<path d="M269 414.005C275 409.005 279 399.171 279.5 399.005C261.284 401.191 247.855 386.387 239 378.192C235.703 375.14 233.04 373.005 231 373.005C227 373.005 223.5 378.005 223.5 378.005C205.571 396.212 195.825 400.693 179 398.505C185.791 400.931 188.5 409.505 193.5 413.505C203.605 412.813 223 391.005 231 391.005C242 391.505 252 410.005 269 414.005Z" fill="#E5DCD8"/>
<path d="M279.5 399.005C307.349 389.746 305.826 376.605 306 354.505C297.623 307.462 293.053 284.78 286 276.505V281.505V288.005C282.5 318.005 274 320.505 239 338.005V378.192C247.855 386.387 261.284 401.191 279.5 399.005Z" fill="#FAF8F8"/>
<path d="M155 356.505C155.027 357.07 151 388.505 179 398.505C195.825 400.693 205.571 396.212 223.5 378.005L223 339.005C184.5 316.005 180.5 321.505 176 285.005V281.005V276.005C166.29 291.029 161.899 310.912 155 356.505Z" fill="#FAF8F8"/>
<path d="M231 373.005C227 373.005 223.5 378.005 223.5 378.005L223 339.005C223 339.005 228 342.505 231 342.505C234 342.505 239 338.005 239 338.005V378.192C235.402 374.874 233.43 373.135 231 373.005Z" fill="#F0E9E6"/>
<path d="M231 342.505C228 342.505 223 339.005 223 339.005V295.005C223 295.005 230 296.005 231.5 296.005C233 296.005 239 295.005 239 295.005V338.005C239 338.005 234 342.505 231 342.505Z" fill="#665E66"/>
<path d="M176 285.005C180.5 321.505 184.5 316.005 223 339.005V295.005C211 292.505 195 274.005 187 274.005C179 274.005 176 281.005 176 281.005V285.005Z" fill="#756E78"/>
<path d="M286 281.505C283.023 276.446 280.528 275.177 275.5 274.005C265.5 273.505 250.5 294.005 239 295.005V338.005C274 320.505 282.5 318.005 286 288.005V281.505Z" fill="#756E78"/>
<path d="M195 247.005C177.526 251.946 176.642 260.375 176 276.005V281.005C176 281.005 179 274.005 187 274.005C195 274.005 211 292.505 223 295.005C223 295.005 230 296.005 231.5 296.005C233 296.005 239 295.005 239 295.005C250.5 294.005 265.5 273.505 275.5 274.005C280.528 275.177 283.023 276.446 286 281.505V276.505V267.005C283.082 255.057 278.711 250.987 267.5 247.005H195Z" fill="#8B818E"/>
<path fill-rule="evenodd" clip-rule="evenodd" d="M67 231.505C67.016 231.508 67.0277 231.52 67.0353 231.541L67 231.505Z" fill="#E5DCD8"/>
<path d="M399 250.005C399.861 243.543 399 238.505 394 230.505C385.59 241.837 375.505 245.65 346 247.005V255.005C346 255.005 344.5 261.505 339 261.505C333.5 261.505 332 256.005 332 256.005V242.005C319.5 238.005 308.5 215.005 307.5 215.005C306.934 215.005 303.778 221.005 290 221.005C283 221.005 275.5 223.505 259.5 203.005C257.654 200.64 249.5 217.505 231 218.005C229.001 218.059 219 220.505 204 203.005C202.658 201.44 192.5 223.505 171.5 223.005C162.679 222.795 157 217.005 155 217.005C153 217.005 149.5 227.005 131 241.285V256.005C127.807 259.947 125 261.505 122.5 261.505C120 261.505 116.605 259.493 115 255.005V245.005C89.3202 245.393 78.2466 242.898 67.0353 231.541C67.2893 232.238 62.9961 242.803 62.5 250.005C61.6745 261.988 68.5 275.505 93 286.005C101.72 289.742 113.191 297.336 114 310.005C114.398 316.241 113.5 326.005 115.5 326.005C124.5 326.005 153.5 325.005 155 356.505C161.899 310.912 166.29 291.029 176 276.005C176.642 260.375 177.526 251.946 195 247.005H267.5C278.711 250.987 283.082 255.057 286 267.005V276.505C293.053 284.78 297.623 307.462 306 354.505C306 354.505 306.886 326.005 346.5 326.005C348.5 326.005 346.5 294.505 364.5 287.505C376.732 282.748 395 280.005 399 250.005Z" fill="#E5DCD8"/>
<path fill-rule="evenodd" clip-rule="evenodd" d="M67 231.505C67.016 231.508 67.0277 231.52 67.0353 231.541L67 231.505Z" fill="#E5DCD8"/>
<path d="M78 463.505C83 502.505 114.254 498.999 114.5 499.005L125.165 497.913C125.165 497.913 100 490.505 93.5 462.005C92.1106 455.913 82.5 460.505 77 459.005C59.1519 454.138 54 452.005 45.5 429.505C42.6573 421.98 48.5 401.876 47 401.005C18.5 384.457 20 370.073 20 368.005C20 349.005 32.1029 343.505 32 338.005C31.8315 329.005 16 326.505 16 306.005C16 270.935 44.5 279.005 41 269.005C39.832 265.668 23 225.005 44 227.005C49.6751 227.546 58.5 230.005 67 231.505L87 221.005C82.6137 215.901 80.6474 213.66 79 212.005C65.8425 211.6 59.5592 210.035 51 204.005C51 204.005 18 208.505 18 241.505C18 259.005 27.5 267.005 27.5 268.505C27.5 269.505 -2.35694e-05 277.505 0 306.005C1.81986e-05 328.011 17.5 337.505 17.5 339.005C17.5 340.505 5 351.505 5 368.005C5 399.021 33.5 405.005 33.5 406.005C33.5 407.005 30.7282 414.524 29.9998 424.005C29.9715 450.887 56.5696 461.731 65.9998 461.005C72.4998 460.505 77.5009 459.612 78 463.505Z" fill="#E5DCD8"/>
<path d="M115 255.005V245.005V230.505C121.335 230.174 124.83 228.922 131 225.505V241.285V256.005C127.807 259.947 125 261.505 122.5 261.505C120 261.505 116.605 259.493 115 255.005Z" fill="#756E78"/>
<path d="M332 256.005V242.005V226.005C337.086 228.998 340.122 229.983 346 230.005V247.005V255.005C346 255.005 344.5 261.505 339 261.505C333.5 261.505 332 256.005 332 256.005Z" fill="#756E78"/>
<path fill-rule="evenodd" clip-rule="evenodd" d="M67 231.505C67.016 231.508 67.0277 231.52 67.0353 231.541L67 231.505Z" fill="#DBD2CC"/>
<path d="M87 221.005L67 231.505C67.016 231.508 67.0277 231.52 67.0353 231.541C78.2466 242.898 89.3202 245.393 115 245.005V230.505C104.406 230.963 98.3081 229.284 87 221.005Z" fill="#DBD2CC"/>
<path d="M131 241.285C149.5 227.005 153 217.005 155 217.005C157 217.005 162.679 222.795 171.5 223.005C192.5 223.505 202.658 201.44 204 203.005C219 220.505 229.001 218.059 231 218.005C249.5 217.505 257.654 200.64 259.5 203.005C275.5 223.505 283 221.005 290 221.005C303.778 221.005 306.934 215.005 307.5 215.005C308.5 215.005 319.5 238.005 332 242.005V226.005C321.331 220.327 317.78 214.334 312 203.005C285.595 211.115 275.647 204.803 261.5 185.505C242.5 206.505 216 205.005 200.5 185.005C188.618 202.366 180.442 205.727 164.5 206.005C163.525 206.959 150.074 203.91 149.5 203.005C148.926 202.1 146.5 217.505 131 225.505V241.285Z" fill="#DBD2CC"/>
<path d="M346 247.005C375.505 245.65 385.59 241.837 394 230.505L377.5 219.005C364.859 228.436 357.929 231.344 346 230.005V247.005Z" fill="#DBD2CC"/>
<path d="M432.5 214.005C418 231.505 393.407 229.557 394 230.505L377.5 219.005L383 212.005C394.552 211.45 400.716 210.341 410 204.005C421.601 205.482 426.501 207.695 432.5 214.005Z" fill="#E5DCD8"/>
<path d="M79 212.005C65.8425 211.6 59.5592 210.035 51 204.005C33.5 185.005 31.5 169.005 46 149.505C57 135.505 73.5 136.005 74 135.005C74.4999 134.005 76 116.005 87 108.505C97.5 99.0052 105.051 97.5019 119 98.0051L129 102.005C138 79.5052 152.5 74.0051 166 74.0051C185.5 73.5052 195 89.0051 196.5 89.0051C198 89.0051 206.5 67.4946 231 68.0051C255 68.5052 264.5 88.0052 265.5 88.5052C266.5 89.0052 279.088 72.3095 296 74.0051C324 73.0052 332 101.005 333 101.505C334 102.005 339.517 99.9852 342 99.5051C353.334 97.3133 361.26 97.4244 377 110.005C384.753 117.999 387.05 123.761 388 136.005C400.841 139.8 409.542 143.285 416.5 150.506C421.544 155.742 424.363 163.162 425 174.505C423.737 189.514 420.708 196.167 410 204.005C401.235 209.85 395.436 211.775 383 212.005L377.5 219.005C364.859 228.436 357.929 231.344 346 230.005C340.122 229.983 337.086 228.998 332 226.005C321.331 220.327 317.78 214.334 312 203.005C285.595 211.115 275.647 204.803 261.5 185.505C242.5 206.505 216 205.005 200.5 185.005C188.618 202.366 180.442 205.727 164.5 206.005C163.525 206.959 150.074 203.91 149.5 203.005C148.926 202.1 146.5 217.505 131 225.505C124.83 228.922 121.335 230.174 115 230.505C104.406 230.963 98.3081 229.284 87 221.005C82.6137 215.901 80.6474 213.66 79 212.005Z" fill="#FAF8F8"/>
<path d="M3.49997 16.0052C18.5307 76.1507 27.9723 116.99 36 128.005C36 128.005 55 121.505 58 119.005C61 116.505 64.0001 98.505 64 97.0051C64 95.5052 11 1.00521 11 1.00521C4.12384 7.07581 2.42053 9.96822 3.49997 16.0052Z" fill="#F0E9E6"/>
<path d="M451.5 2.00518C455.712 5.76751 458.5 8.00518 458.5 16.5052C441.131 87.7682 433.977 112.918 426.5 127.505C413.718 122.721 403.924 119.742 402 117.005C400.232 109.254 398 100.505 398.5 97.0051C399 93.5052 451.5 2.00518 451.5 2.00518Z" fill="#F0E9E6"/>
<path d="M77 87.0051L24.5 1.50518C66.3546 38.5398 91.5308 62.7483 104.5 78.5052C91.8248 78.6709 86.0362 80.9109 77 87.0051Z" fill="#FAF8F8"/>
<path d="M385 87.0051C375.362 81.1919 369.141 79.6288 357 79.0051C391.969 44.8652 432.788 4.1233 440.5 0.505179C415.526 29.5018 404.953 50.7298 385 87.0051Z" fill="#FAF8F8"/>
</svg>
