<svg width="464" height="514" viewBox="0 0 464 514" fill="none" xmlns="http://www.w3.org/2000/svg">
<path fill-rule="evenodd" clip-rule="evenodd" d="M67.5 232.005C67.516 232.008 67.5277 232.02 67.5353 232.041L67.5 232.005Z" fill="#E5DCD8"/>
<path d="M46.5 150.005C57.5 136.005 74 136.505 74.5 135.505C74.9999 134.505 76.5 116.505 87.5 109.005L77.5 87.5051L25 2.00518C20.128 0.193781 17.5 0.00519156 11.5 1.50521C11.5 1.50521 64.5 96.0052 64.5 97.5051C64.5001 99.005 61.5 117.005 58.5 119.505C55.5 122.005 36.5 128.505 36.5 128.505L46.5 150.005Z" fill="#E5DCD8"/>
<path d="M377.5 110.505C385.253 118.499 387.55 124.261 388.5 136.505C401.341 140.3 410.042 143.785 417 151.006L427 128.005C414.218 123.221 404.424 120.242 402.5 117.505C400.732 109.754 398.5 101.005 399 97.5051C399.5 94.0052 452 2.50518 452 2.50518C448.302 1.18184 446.823 -0.170008 441 1.00518C416.026 30.0018 405.453 51.2298 385.5 87.5051L374.724 108.354C375.622 109.027 376.547 109.743 377.5 110.505Z" fill="#E5DCD8"/>
<path d="M105 79.0052C111.668 86.3217 114.764 90.6147 119.5 98.5051C105.551 98.0019 98 99.5052 87.5 109.005L77.5 87.5051C86.5362 81.4109 92.3248 79.1709 105 79.0052Z" fill="#F0E9E6"/>
<path d="M374.724 108.354C360.787 97.9193 353.147 97.946 342.5 100.005L357.5 79.5051C369.641 80.1288 375.862 81.6919 385.5 87.5051L374.724 108.354Z" fill="#F0E9E6"/>
<path d="M231.5 512.505C218.049 512.505 210.582 506.938 206.5 502.005C194.5 487.505 205 512.505 170.5 512.505C168.762 512.505 153.5 515.505 139 494.505C136.383 490.715 134.837 495.985 125.665 498.413C125.665 498.413 100.5 491.005 94 462.505C92.6106 456.413 83 461.005 77.5 459.505C59.6519 454.638 54.5 452.505 46 430.005C43.1573 422.48 49 402.376 47.5 401.505C19 384.957 20.5 370.573 20.5 368.505C20.5 349.505 32.6029 344.005 32.5 338.505C32.3315 329.505 16.5 327.005 16.5 306.505C16.5 271.435 45 279.505 41.5 269.505C40.332 266.168 23.5 225.505 44.5 227.505C50.1751 228.046 59.0353 230.541 67.5353 232.041C67.7893 232.738 63.4961 243.303 63 250.505C62.1745 262.488 69 276.005 93.5 286.505C102.22 290.242 113.691 297.836 114.5 310.505C114.898 316.741 114 326.505 116 326.505C125 326.505 154 325.505 155.5 357.005C155.527 357.57 151.5 389.005 179.5 399.005C186.291 401.431 189 410.005 194 414.005C206.129 423.708 236.458 442.041 269.5 414.505C275.5 409.505 279.5 399.671 280 399.505C307.849 390.246 306.326 377.105 306.5 355.005C306.5 355.005 307.386 326.505 347 326.505C349 326.505 347 295.005 365 288.005C377.232 283.248 395.5 280.505 399.5 250.505C400.361 244.043 399.5 239.005 394.5 231.005C393.907 230.057 418.5 232.005 433 214.505C433.9 213.418 444.5 224.505 445 241.505C446 250.005 442.411 256.742 435.5 268.505C434.714 269.783 463 279.505 462.5 305.505C462.442 308.505 464.5 325.005 445.5 339.505C444.705 340.112 457 352.005 457.5 368.505C457.545 370.004 461 393.005 430.5 405.505C428.141 406.472 433.5 414.505 432.5 425.005C432.358 426.498 431 456.005 400 461.505C395.85 462.242 385.952 460.198 385 464.005C383.5 470.005 383 499.505 348 499.505C338.681 499.505 334.037 497.274 325.5 493.005C324.5 492.505 317.133 506.375 304 511.005C291.583 515.383 274.481 511.192 270.5 506.005C254 484.505 268 512.505 231.5 512.505Z" fill="#F0E9E6"/>
<path d="M194 414.005C206.129 423.708 236.458 442.041 269.5 414.505C252.5 410.505 242.5 392.005 231.5 391.505C223.5 391.505 204.105 413.313 194 414.005Z" fill="#FAF8F8"/>
<path d="M269.5 414.505C275.5 409.505 279.5 399.671 280 399.505C261.784 401.691 248.355 386.887 239.5 378.692C236.203 375.64 233.54 373.505 231.5 373.505C227.5 373.505 224 378.505 224 378.505C206.071 396.712 196.325 401.193 179.5 399.005C186.291 401.431 189 410.005 194 414.005C204.105 413.313 223.5 391.505 231.5 391.505C242.5 392.005 252.5 410.505 269.5 414.505Z" fill="#E5DCD8"/>
<path d="M280 399.505C307.849 390.246 306.326 377.105 306.5 355.005C298.123 307.962 293.553 285.28 286.5 277.005V282.005V288.505C283 318.505 274.5 321.005 239.5 338.505V378.692C248.355 386.887 261.784 401.691 280 399.505Z" fill="#FAF8F8"/>
<path d="M155.5 357.005C155.527 357.57 151.5 389.005 179.5 399.005C196.325 401.193 206.071 396.712 224 378.505L223.5 339.505C185 316.505 181 322.005 176.5 285.505V281.505V276.505C166.79 291.529 162.399 311.412 155.5 357.005Z" fill="#FAF8F8"/>
<path d="M231.5 373.505C227.5 373.505 224 378.505 224 378.505L223.5 339.505C223.5 339.505 228.5 343.005 231.5 343.005C234.5 343.005 239.5 338.505 239.5 338.505V378.692C235.902 375.374 233.93 373.635 231.5 373.505Z" fill="#F0E9E6"/>
<path d="M231.5 343.005C228.5 343.005 223.5 339.505 223.5 339.505V295.505C223.5 295.505 230.5 296.505 232 296.505C233.5 296.505 239.5 295.505 239.5 295.505V338.505C239.5 338.505 234.5 343.005 231.5 343.005Z" fill="#665E66"/>
<path d="M176.5 285.505C181 322.005 185 316.505 223.5 339.505V295.505C211.5 293.005 195.5 274.505 187.5 274.505C179.5 274.505 176.5 281.505 176.5 281.505V285.505Z" fill="#756E78"/>
<path d="M286.5 282.005C283.523 276.946 281.028 275.677 276 274.505C266 274.005 251 294.505 239.5 295.505V338.505C274.5 321.005 283 318.505 286.5 288.505V282.005Z" fill="#756E78"/>
<path d="M195.5 247.505C178.026 252.446 177.142 260.875 176.5 276.505V281.505C176.5 281.505 179.5 274.505 187.5 274.505C195.5 274.505 211.5 293.005 223.5 295.505C223.5 295.505 230.5 296.505 232 296.505C233.5 296.505 239.5 295.505 239.5 295.505C251 294.505 266 274.005 276 274.505C281.028 275.677 283.523 276.946 286.5 282.005V277.005V267.505C283.582 255.557 279.211 251.487 268 247.505H195.5Z" fill="#8B818E"/>
<path fill-rule="evenodd" clip-rule="evenodd" d="M67.5 232.005C67.516 232.008 67.5277 232.02 67.5353 232.041L67.5 232.005Z" fill="#E5DCD8"/>
<path d="M399.5 250.505C400.361 244.043 399.5 239.005 394.5 231.005C386.09 242.337 376.005 246.15 346.5 247.505V255.505C346.5 255.505 345 262.005 339.5 262.005C334 262.005 332.5 256.505 332.5 256.505V242.505C320 238.505 309 215.505 308 215.505C307.434 215.505 304.278 221.505 290.5 221.505C283.5 221.505 276 224.005 260 203.505C258.154 201.14 250 218.005 231.5 218.505C229.501 218.559 219.5 221.005 204.5 203.505C203.158 201.94 193 224.005 172 223.505C163.179 223.295 157.5 217.505 155.5 217.505C153.5 217.505 150 227.505 131.5 241.785V256.505C128.307 260.447 125.5 262.005 123 262.005C120.5 262.005 117.105 259.993 115.5 255.505V245.505C89.8202 245.893 78.7466 243.398 67.5353 232.041C67.7893 232.738 63.4961 243.303 63 250.505C62.1745 262.488 69 276.005 93.5 286.505C102.22 290.242 113.691 297.836 114.5 310.505C114.898 316.741 114 326.505 116 326.505C125 326.505 154 325.505 155.5 357.005C162.399 311.412 166.79 291.529 176.5 276.505C177.142 260.875 178.026 252.446 195.5 247.505H268C279.211 251.487 283.582 255.557 286.5 267.505V277.005C293.553 285.28 298.123 307.962 306.5 355.005C306.5 355.005 307.386 326.505 347 326.505C349 326.505 347 295.005 365 288.005C377.232 283.248 395.5 280.505 399.5 250.505Z" fill="#E5DCD8"/>
<path fill-rule="evenodd" clip-rule="evenodd" d="M67.5 232.005C67.516 232.008 67.5277 232.02 67.5353 232.041L67.5 232.005Z" fill="#E5DCD8"/>
<path d="M78.5 464.005C83.5 503.005 114.754 499.499 115 499.505L125.665 498.413C125.665 498.413 100.5 491.005 94 462.505C92.6106 456.413 83 461.005 77.5 459.505C59.6519 454.638 54.5 452.505 46 430.005C43.1573 422.48 49 402.376 47.5 401.505C19 384.957 20.5 370.573 20.5 368.505C20.5 349.505 32.6029 344.005 32.5 338.505C32.3315 329.505 16.5 327.005 16.5 306.505C16.5 271.435 45 279.505 41.5 269.505C40.332 266.168 23.5 225.505 44.5 227.505C50.1751 228.046 59 230.505 67.5 232.005L87.5 221.505C83.1137 216.401 81.1474 214.16 79.5 212.505C66.3425 212.1 60.0592 210.535 51.5 204.505C51.5 204.505 18.5 209.005 18.5 242.005C18.5 259.505 28 267.505 28 269.005C28 270.005 0.499976 278.005 0.5 306.505C0.500018 328.511 18 338.005 18 339.505C18 341.005 5.5 352.005 5.5 368.505C5.5 399.521 34 405.505 34 406.505C34 407.505 31.2282 415.024 30.4998 424.505C30.4715 451.387 57.0696 462.231 66.4998 461.505C72.9998 461.005 78.0009 460.112 78.5 464.005Z" fill="#E5DCD8"/>
<path d="M115.5 255.505V245.505V231.005C121.835 230.674 125.33 229.422 131.5 226.005V241.785V256.505C128.307 260.447 125.5 262.005 123 262.005C120.5 262.005 117.105 259.993 115.5 255.505Z" fill="#756E78"/>
<path d="M332.5 256.505V242.505V226.505C337.586 229.498 340.622 230.483 346.5 230.505V247.505V255.505C346.5 255.505 345 262.005 339.5 262.005C334 262.005 332.5 256.505 332.5 256.505Z" fill="#756E78"/>
<path fill-rule="evenodd" clip-rule="evenodd" d="M67.5 232.005C67.516 232.008 67.5277 232.02 67.5353 232.041L67.5 232.005Z" fill="#DBD2CC"/>
<path d="M87.5 221.505L67.5 232.005C67.516 232.008 67.5277 232.02 67.5353 232.041C78.7466 243.398 89.8202 245.893 115.5 245.505V231.005C104.906 231.463 98.8081 229.784 87.5 221.505Z" fill="#DBD2CC"/>
<path d="M131.5 241.785C150 227.505 153.5 217.505 155.5 217.505C157.5 217.505 163.179 223.295 172 223.505C193 224.005 203.158 201.94 204.5 203.505C219.5 221.005 229.501 218.559 231.5 218.505C250 218.005 258.154 201.14 260 203.505C276 224.005 283.5 221.505 290.5 221.505C304.278 221.505 307.434 215.505 308 215.505C309 215.505 320 238.505 332.5 242.505V226.505C321.831 220.827 318.28 214.834 312.5 203.505C286.095 211.615 276.147 205.303 262 186.005C243 207.005 216.5 205.505 201 185.505C189.118 202.866 180.942 206.227 165 206.505C164.025 207.459 150.574 204.41 150 203.505C149.426 202.6 147 218.005 131.5 226.005V241.785Z" fill="#DBD2CC"/>
<path d="M346.5 247.505C376.005 246.15 386.09 242.337 394.5 231.005L378 219.505C365.359 228.936 358.429 231.844 346.5 230.505V247.505Z" fill="#DBD2CC"/>
<path d="M433 214.505C418.5 232.005 393.907 230.057 394.5 231.005L378 219.505L383.5 212.505C395.052 211.95 401.216 210.841 410.5 204.505C422.101 205.982 427.001 208.195 433 214.505Z" fill="#E5DCD8"/>
<path d="M79.5 212.505C66.3425 212.1 60.0592 210.535 51.5 204.505C34 185.505 32 169.505 46.5 150.005C57.5 136.005 74 136.505 74.5 135.505C74.9999 134.505 76.5 116.505 87.5 109.005C98 99.5052 105.551 98.0019 119.5 98.5051L129.5 102.505C138.5 80.0052 153 74.5051 166.5 74.5051C186 74.0052 195.5 89.5051 197 89.5051C198.5 89.5051 207 67.9946 231.5 68.5051C255.5 69.0052 265 88.5052 266 89.0052C267 89.5052 279.588 72.8095 296.5 74.5051C324.5 73.5052 332.5 101.505 333.5 102.005C334.5 102.505 340.017 100.485 342.5 100.005C353.834 97.8133 361.76 97.9244 377.5 110.505C385.253 118.499 387.55 124.261 388.5 136.505C401.341 140.3 410.042 143.785 417 151.006C422.044 156.242 424.863 163.662 425.5 175.005C424.237 190.014 421.208 196.667 410.5 204.505C401.735 210.35 395.936 212.275 383.5 212.505L378 219.505C365.359 228.936 358.429 231.844 346.5 230.505C340.622 230.483 337.586 229.498 332.5 226.505C321.831 220.827 318.28 214.834 312.5 203.505C286.095 211.615 276.147 205.303 262 186.005C243 207.005 216.5 205.505 201 185.505C189.118 202.866 180.942 206.227 165 206.505C164.025 207.459 150.574 204.41 150 203.505C149.426 202.6 147 218.005 131.5 226.005C125.33 229.422 121.835 230.674 115.5 231.005C104.906 231.463 98.8081 229.784 87.5 221.505C83.1137 216.401 81.1474 214.16 79.5 212.505Z" fill="#FAF8F8"/>
<path d="M3.99997 16.5052C19.0307 76.6507 28.4723 117.49 36.5 128.505C36.5 128.505 55.5 122.005 58.5 119.505C61.5 117.005 64.5001 99.005 64.5 97.5051C64.5 96.0052 11.5 1.50521 11.5 1.50521C4.62384 7.57581 2.92053 10.4682 3.99997 16.5052Z" fill="#F0E9E6"/>
<path d="M452 2.50518C456.212 6.26751 459 8.50518 459 17.0052C441.631 88.2682 434.477 113.418 427 128.005C414.218 123.221 404.424 120.242 402.5 117.505C400.732 109.754 398.5 101.005 399 97.5051C399.5 94.0052 452 2.50518 452 2.50518Z" fill="#F0E9E6"/>
<path d="M77.5 87.5051L25 2.00518C66.8546 39.0398 92.0308 63.2483 105 79.0052C92.3248 79.1709 86.5362 81.4109 77.5 87.5051Z" fill="#FAF8F8"/>
<path d="M385.5 87.5051C375.862 81.6919 369.641 80.1288 357.5 79.5051C392.469 45.3652 433.288 4.6233 441 1.00518C416.026 30.0018 405.453 51.2298 385.5 87.5051Z" fill="#FAF8F8"/>
<path d="M115 499.505C114.754 499.499 83.5 503.005 78.5 464.005C78.0009 460.112 72.9998 461.005 66.4998 461.505C57.0696 462.231 30.4715 451.387 30.4998 424.505C31.2282 415.024 34 407.505 34 406.505C34 405.505 5.5 399.521 5.5 368.505C5.5 352.005 18 341.005 18 339.505C18 338.005 0.500018 328.511 0.5 306.505C0.499976 278.005 28 270.005 28 269.005C28 267.505 18.5 259.505 18.5 242.005C18.5 209.005 51.5 204.505 51.5 204.505M115 499.505C119.414 499.621 122.889 499.147 125.665 498.413M115 499.505L125.665 498.413M435.5 268.505C434.714 269.783 463 279.505 462.5 305.505C462.442 308.505 464.5 325.005 445.5 339.505C444.705 340.112 457 352.005 457.5 368.505C457.545 370.004 461 393.005 430.5 405.505C428.141 406.472 433.5 414.505 432.5 425.005C432.358 426.498 431 456.005 400 461.505C395.85 462.242 385.952 460.198 385 464.005C383.5 470.005 383 499.505 348 499.505C338.681 499.505 334.037 497.274 325.5 493.005C324.5 492.505 317.133 506.375 304 511.005C291.583 515.383 274.481 511.192 270.5 506.005C254 484.505 268 512.505 231.5 512.505C218.049 512.505 210.582 506.938 206.5 502.005C194.5 487.505 205 512.505 170.5 512.505C168.762 512.505 153.5 515.505 139 494.505C136.383 490.715 134.837 495.985 125.665 498.413M435.5 268.505C447.5 249.005 445.088 244.504 445 241.505M435.5 268.505C442.411 256.742 446 250.005 445 241.505M445 241.505C444.5 224.505 433.9 213.418 433 214.505M433 214.505C418.5 232.005 393.907 230.057 394.5 231.005M433 214.505C427.001 208.195 422.101 205.982 410.5 204.505M394.5 231.005C399.5 239.005 400.361 244.043 399.5 250.505C395.5 280.505 377.232 283.248 365 288.005C347 295.005 349 326.505 347 326.505C307.386 326.505 306.5 355.005 306.5 355.005M394.5 231.005C386.09 242.337 376.005 246.15 346.5 247.505M394.5 231.005L378 219.505M306.5 355.005C306.326 377.105 307.849 390.246 280 399.505M306.5 355.005C298.123 307.962 293.553 285.28 286.5 277.005M280 399.505C279.5 399.671 275.5 409.505 269.5 414.505M280 399.505C255 402.505 239.017 373.505 231.5 373.505M280 399.505C261.784 401.691 248.355 386.887 239.5 378.692M269.5 414.505C236.458 442.041 206.129 423.708 194 414.005M269.5 414.505C252.5 410.505 242.5 392.005 231.5 391.505C223.5 391.505 204.105 413.313 194 414.005M194 414.005C189 410.005 186.291 401.431 179.5 399.005M179.5 399.005C151.5 389.005 155.527 357.57 155.5 357.005M179.5 399.005C196.325 401.193 206.071 396.712 224 378.505M155.5 357.005C154 325.505 125 326.505 116 326.505C114 326.505 114.898 316.741 114.5 310.505C113.691 297.836 102.22 290.242 93.5 286.505C69 276.005 62.1745 262.488 63 250.505C63.4961 243.303 67.7893 232.738 67.5353 232.041M155.5 357.005C162.399 311.412 166.79 291.529 176.5 276.505M67.5 232.005C59 230.505 50.1751 228.046 44.5 227.505M67.5 232.005L87.5 221.505M67.5 232.005C67.516 232.008 67.5277 232.02 67.5353 232.041M67.5 232.005C67.5118 232.017 67.5235 232.029 67.5353 232.041M67.5 232.005L67.5353 232.041M44.5 227.505C23.5 225.505 40.332 266.168 41.5 269.505C45 279.505 16.5 271.435 16.5 306.505C16.5 327.005 32.3315 329.505 32.5 338.505C32.6029 344.005 20.5 349.505 20.5 368.505C20.5 370.573 19 384.957 47.5 401.505C49 402.376 43.1573 422.48 46 430.005C54.5 452.505 59.6519 454.638 77.5 459.505C83 461.005 92.6106 456.413 94 462.505C100.5 491.005 125.665 498.413 125.665 498.413M44.5 227.505C50.1751 228.046 59.0353 230.541 67.5353 232.041M51.5 204.505C60.0592 210.535 66.3425 212.1 79.5 212.505C81.1474 214.16 83.1137 216.401 87.5 221.505M51.5 204.505C34 185.505 32 169.505 46.5 150.005M87.5 221.505C98.8081 229.784 104.906 231.463 115.5 231.005M115.5 245.505V255.505C117.105 259.993 120.5 262.005 123 262.005C125.5 262.005 128.307 260.447 131.5 256.505V241.785M115.5 245.505V231.005M115.5 245.505C89.8202 245.893 78.7466 243.398 67.5353 232.041M131.5 241.785C150 227.505 153.5 217.505 155.5 217.505C157.5 217.505 163.179 223.295 172 223.505C193 224.005 203.158 201.94 204.5 203.505C219.5 221.005 229.501 218.559 231.5 218.505C250 218.005 258.154 201.14 260 203.505C276 224.005 283.5 221.505 290.5 221.505C304.278 221.505 307.434 215.505 308 215.505C309 215.505 320 238.505 332.5 242.505M131.5 241.785V226.005M332.5 242.505V256.505C332.5 256.505 334 262.005 339.5 262.005C345 262.005 346.5 255.505 346.5 255.505V247.505M332.5 242.505V226.505M346.5 247.505V230.505M176.5 276.505C177.142 260.875 178.026 252.446 195.5 247.505H268C279.211 251.487 283.582 255.557 286.5 267.505V277.005M176.5 276.505V281.505M286.5 277.005V282.005M410.5 204.505C401.735 210.35 395.936 212.275 383.5 212.505M410.5 204.505C421.208 196.667 424.237 190.014 425.5 175.005C424.863 163.662 422.044 156.242 417 151.006M410.5 204.505C401.216 210.841 395.052 211.95 383.5 212.505M383.5 212.505L378 219.505M378 219.505C365.359 228.936 358.429 231.844 346.5 230.505M115.5 231.005C121.835 230.674 125.33 229.422 131.5 226.005M332.5 226.505C321.831 220.827 318.28 214.834 312.5 203.505C286.095 211.615 276.147 205.303 262 186.005C243 207.005 216.5 205.505 201 185.505C189.118 202.866 180.942 206.227 165 206.505C164.025 207.459 150.574 204.41 150 203.505C149.426 202.6 147 218.005 131.5 226.005M332.5 226.505C337.586 229.498 340.622 230.483 346.5 230.505M231.5 373.505C227.5 373.505 224 378.505 224 378.505M231.5 373.505C233.54 373.505 236.203 375.64 239.5 378.692M231.5 373.505C233.93 373.635 235.902 375.374 239.5 378.692M224 378.505L223.5 339.505M223.5 339.505C223.5 339.505 228.5 343.005 231.5 343.005C234.5 343.005 239.5 338.505 239.5 338.505M223.5 339.505C185 316.505 181 322.005 176.5 285.505V281.505M223.5 339.505V295.505M239.5 338.505V378.692M239.5 338.505C274.5 321.005 283 318.505 286.5 288.505V282.005M239.5 338.505V295.505M176.5 281.505C176.5 281.505 179.5 274.505 187.5 274.505C195.5 274.505 211.5 293.005 223.5 295.505M286.5 282.005C283.523 276.946 281.028 275.677 276 274.505C266 274.005 251 294.505 239.5 295.505M239.5 295.505C239.5 295.505 233.5 296.505 232 296.505C230.5 296.505 223.5 295.505 223.5 295.505M46.5 150.005C57.5 136.005 74 136.505 74.5 135.505C74.9999 134.505 76.5 116.505 87.5 109.005M46.5 150.005L36.5 128.505M119.5 98.5051L129.5 102.505C138.5 80.0052 153 74.5051 166.5 74.5051C186 74.0052 195.5 89.5051 197 89.5051C198.5 89.5051 207 67.9946 231.5 68.5051C255.5 69.0052 265 88.5052 266 89.0052C267 89.5052 279.588 72.8095 296.5 74.5051C324.5 73.5052 332.5 101.505 333.5 102.005C334.5 102.505 340.017 100.485 342.5 100.005M119.5 98.5051C114.764 90.6147 111.668 86.3217 105 79.0052M119.5 98.5051C105.551 98.0019 98 99.5052 87.5 109.005M377.5 110.505C385.253 118.499 387.55 124.261 388.5 136.505C401.341 140.3 410.042 143.785 417 151.006M377.5 110.505C361.76 97.9244 353.834 97.8133 342.5 100.005M377.5 110.505C376.547 109.743 375.622 109.027 374.724 108.354M36.5 128.505C28.4723 117.49 19.0307 76.6507 3.99997 16.5052C2.92053 10.4682 4.62384 7.57581 11.5 1.50521M36.5 128.505C36.5 128.505 55.5 122.005 58.5 119.505C61.5 117.005 64.5001 99.005 64.5 97.5051C64.5 96.0052 11.5 1.50521 11.5 1.50521M11.5 1.50521C17.5 0.00519156 20.128 0.193781 25 2.00518M25 2.00518L77.5 87.5051M25 2.00518C66.8546 39.0398 92.0308 63.2483 105 79.0052M77.5 87.5051C86.5362 81.4109 92.3248 79.1709 105 79.0052M77.5 87.5051L87.5 109.005M417 151.006L427 128.005M452 2.50518C456.212 6.26751 459 8.50518 459 17.0052C441.631 88.2682 434.477 113.418 427 128.005M452 2.50518C452 2.50518 399.5 94.0052 399 97.5051C398.5 101.005 400.732 109.754 402.5 117.505C404.424 120.242 414.218 123.221 427 128.005M452 2.50518C448.302 1.18184 446.823 -0.170008 441 1.00518M342.5 100.005L357.5 79.5051M342.5 100.005C353.147 97.946 360.787 97.9193 374.724 108.354M357.5 79.5051C369.641 80.1288 375.862 81.6919 385.5 87.5051M357.5 79.5051C392.469 45.3652 433.288 4.6233 441 1.00518M385.5 87.5051L374.724 108.354M385.5 87.5051C405.453 51.2298 416.026 30.0018 441 1.00518" stroke="black"/>
</svg>
